<svg width="24" height="31" viewBox="0 0 24 31" fill="none" xmlns="http://www.w3.org/2000/svg">
<g clip-path="url(#clip0_216_6191)">
<path d="M12 18.4998C15.3089 18.4998 17.9999 15.8089 17.9999 12.4999C17.9999 9.19092 15.3089 6.49995 12 6.49995C8.69101 6.49995 6.00004 9.19092 6.00004 12.4999C6.00004 15.8089 8.69101 18.4998 12 18.4998ZM12 9.49992C13.6545 9.49992 14.9999 10.8454 14.9999 12.4999C14.9999 14.1544 13.6545 15.4999 12 15.4999C10.3455 15.4999 9.00001 14.1544 9.00001 12.4999C9.00001 10.8454 10.3455 9.49992 12 9.49992Z" fill="#121212"/>
<path d="M11.13 30.2207C11.3839 30.402 11.688 30.4994 12 30.4994C12.312 30.4994 12.6161 30.402 12.87 30.2207C13.326 29.8982 24.0434 22.1598 23.9999 12.4999C23.9999 5.88344 18.6164 0.5 12 0.5C5.38357 0.5 0.000132055 5.88344 0.000132055 12.4924C-0.0433675 22.1598 10.674 29.8982 11.13 30.2207ZM12 3.49997C16.9634 3.49997 20.9999 7.53642 20.9999 12.5074C21.0314 19.1643 14.418 25.1417 12 27.1022C9.58353 25.1402 2.9686 19.1613 3.0001 12.4999C3.0001 7.53642 7.03655 3.49997 12 3.49997Z" fill="#121212"/>
</g>
<defs>
<clipPath id="clip0_216_6191">
<rect width="24" height="29.9997" fill="white" transform="translate(0 0.5)"/>
</clipPath>
</defs>
</svg>
