<svg width="24" height="27" viewBox="0 0 24 27" fill="none" xmlns="http://www.w3.org/2000/svg">
<g clip-path="url(#clip0_216_6195)">
<path fill-rule="evenodd" clip-rule="evenodd" d="M-0.91875 6.34215C-0.75492 5.60589 -0.352185 4.94851 0.223498 4.47767C0.79918 4.00683 1.51369 3.75044 2.25 3.75049H21.75C22.4863 3.75044 23.2008 4.00683 23.7765 4.47767C24.3522 4.94851 24.7549 5.60589 24.9187 6.34215L12 14.4405L-0.91875 6.34215ZM-1 8.24549V20.0855L8.42988 14.1555L-1 8.24549ZM9.98663 15.1338L-0.689625 21.8455C-0.425844 22.416 -0.00951922 22.8979 0.510895 23.2351C1.03131 23.5724 1.63441 23.7511 2.25 23.7505H21.75C22.3655 23.7506 22.9684 23.5715 23.4885 23.234C24.0086 22.8964 24.4246 22.4144 24.688 21.8438L14.0118 15.1322L12 16.3938L9.98663 15.1322V15.1338ZM15.5701 14.1572L25 20.0855V8.24549L15.5701 14.1555V14.1572Z" fill="#121212"/>
</g>
<defs>
<clipPath id="clip0_216_6195">
<rect width="24" height="26" fill="white" transform="translate(0 0.625)"/>
</clipPath>
</defs>
</svg>
