<svg width="55" height="55" viewBox="0 0 55 55" fill="none" xmlns="http://www.w3.org/2000/svg">
<path d="M43.5413 20.625C43.5424 17.8633 42.8304 15.1481 41.4743 12.7423C40.1183 10.3364 38.1641 8.32144 35.801 6.89231C33.4378 5.46319 30.7457 4.66835 27.9853 4.58475C25.2249 4.50114 22.4896 5.1316 20.0443 6.41508C17.599 7.69857 15.5265 9.59162 14.0273 11.911C12.5282 14.2303 11.6532 16.8974 11.4871 19.6541C11.3209 22.4108 11.8693 25.1637 13.0791 27.6463C14.2889 30.1289 16.1191 32.2571 18.3926 33.825L11.458 45.8333L16.628 46.0464L19.3963 50.4166L27.3393 36.6575C27.3943 36.6575 27.4447 36.6666 27.4997 36.6666C27.5547 36.6666 27.6051 36.6598 27.6601 36.6575L35.603 50.4166L38.4263 46.1404L43.5413 45.8333L36.6068 33.825C38.7463 32.3519 40.4955 30.3806 41.7035 28.081C42.9116 25.7814 43.5423 23.2226 43.5413 20.625ZM16.0413 20.625C16.0413 18.3587 16.7134 16.1434 17.9724 14.2591C19.2315 12.3748 21.021 10.9061 23.1148 10.0389C25.2085 9.1716 27.5124 8.94469 29.7351 9.38681C31.9578 9.82893 33.9995 10.9202 35.6019 12.5227C37.2044 14.1252 38.2957 16.1669 38.7378 18.3896C39.18 20.6123 38.953 22.9162 38.0858 25.0099C37.2185 27.1036 35.7499 28.8932 33.8656 30.1522C31.9813 31.4113 29.7659 32.0833 27.4997 32.0833C24.4607 32.0833 21.5463 30.8761 19.3974 28.7272C17.2486 26.5784 16.0413 23.6639 16.0413 20.625Z" fill="black"/>
<path d="M27.5 27.5C31.297 27.5 34.375 24.422 34.375 20.625C34.375 16.828 31.297 13.75 27.5 13.75C23.703 13.75 20.625 16.828 20.625 20.625C20.625 24.422 23.703 27.5 27.5 27.5Z" fill="black"/>
</svg>
