<svg width="41" height="39" viewBox="0 0 41 39" fill="none" xmlns="http://www.w3.org/2000/svg">
<g clip-path="url(#clip0_255_14338)">
<path d="M12.8542 19.5C10.6042 19.5725 8.76389 20.5011 7.33333 22.2857H4.54167C3.40278 22.2857 2.44444 21.9919 1.66667 21.4043C0.888889 20.8167 0.5 19.957 0.5 18.8253C0.5 13.7037 1.36111 11.1429 3.08333 11.1429C3.16667 11.1429 3.46875 11.2952 3.98958 11.5999C4.51042 11.9046 5.1875 12.2129 6.02083 12.5248C6.85417 12.8368 7.68056 12.9927 8.5 12.9927C9.43056 12.9927 10.3542 12.8259 11.2708 12.4922C11.2014 13.029 11.1667 13.5078 11.1667 13.9286C11.1667 15.9453 11.7292 17.8025 12.8542 19.5ZM35.1667 33.3633C35.1667 35.1044 34.6597 36.4791 33.6458 37.4874C32.6319 38.4958 31.2847 39 29.6042 39H11.3958C9.71528 39 8.36806 38.4958 7.35417 37.4874C6.34028 36.4791 5.83333 35.1044 5.83333 33.3633C5.83333 32.5943 5.85764 31.8435 5.90625 31.1108C5.95486 30.3781 6.05208 29.5873 6.19792 28.7386C6.34375 27.8898 6.52778 27.1027 6.75 26.3772C6.97222 25.6518 7.27083 24.9445 7.64583 24.2553C8.02083 23.5661 8.45139 22.9785 8.9375 22.4925C9.42361 22.0064 10.0174 21.6183 10.7188 21.3281C11.4201 21.0379 12.1944 20.8929 13.0417 20.8929C13.1806 20.8929 13.4792 21.0488 13.9375 21.3608C14.3958 21.6727 14.9028 22.0209 15.4583 22.4054C16.0139 22.7899 16.7569 23.1381 17.6875 23.4501C18.6181 23.762 19.5556 23.918 20.5 23.918C21.4444 23.918 22.3819 23.762 23.3125 23.4501C24.2431 23.1381 24.9861 22.7899 25.5417 22.4054C26.0972 22.0209 26.6042 21.6727 27.0625 21.3608C27.5208 21.0488 27.8194 20.8929 27.9583 20.8929C28.8056 20.8929 29.5799 21.0379 30.2812 21.3281C30.9826 21.6183 31.5764 22.0064 32.0625 22.4925C32.5486 22.9785 32.9792 23.5661 33.3542 24.2553C33.7292 24.9445 34.0278 25.6518 34.25 26.3772C34.4722 27.1027 34.6562 27.8898 34.8021 28.7386C34.9479 29.5873 35.0451 30.3781 35.0938 31.1108C35.1424 31.8435 35.1667 32.5943 35.1667 33.3633ZM13.8333 5.57143C13.8333 7.10938 13.3125 8.42243 12.2708 9.5106C11.2292 10.5988 9.97222 11.1429 8.5 11.1429C7.02778 11.1429 5.77083 10.5988 4.72917 9.5106C3.6875 8.42243 3.16667 7.10938 3.16667 5.57143C3.16667 4.03348 3.6875 2.72042 4.72917 1.63225C5.77083 0.544085 7.02778 0 8.5 0C9.97222 0 11.2292 0.544085 12.2708 1.63225C13.3125 2.72042 13.8333 4.03348 13.8333 5.57143ZM28.5 13.9286C28.5 16.2355 27.7188 18.2051 26.1562 19.8373C24.5938 21.4696 22.7083 22.2857 20.5 22.2857C18.2917 22.2857 16.4062 21.4696 14.8438 19.8373C13.2812 18.2051 12.5 16.2355 12.5 13.9286C12.5 11.6217 13.2812 9.65207 14.8438 8.01981C16.4062 6.38756 18.2917 5.57143 20.5 5.57143C22.7083 5.57143 24.5938 6.38756 26.1562 8.01981C27.7188 9.65207 28.5 11.6217 28.5 13.9286ZM40.5 18.8253C40.5 19.957 40.1111 20.8167 39.3333 21.4043C38.5556 21.9919 37.5972 22.2857 36.4583 22.2857H33.6667C32.2361 20.5011 30.3958 19.5725 28.1458 19.5C29.2708 17.8025 29.8333 15.9453 29.8333 13.9286C29.8333 13.5078 29.7986 13.029 29.7292 12.4922C30.6458 12.8259 31.5694 12.9927 32.5 12.9927C33.3194 12.9927 34.1458 12.8368 34.9792 12.5248C35.8125 12.2129 36.4896 11.9046 37.0104 11.5999C37.5312 11.2952 37.8333 11.1429 37.9167 11.1429C39.6389 11.1429 40.5 13.7037 40.5 18.8253ZM37.8333 5.57143C37.8333 7.10938 37.3125 8.42243 36.2708 9.5106C35.2292 10.5988 33.9722 11.1429 32.5 11.1429C31.0278 11.1429 29.7708 10.5988 28.7292 9.5106C27.6875 8.42243 27.1667 7.10938 27.1667 5.57143C27.1667 4.03348 27.6875 2.72042 28.7292 1.63225C29.7708 0.544085 31.0278 0 32.5 0C33.9722 0 35.2292 0.544085 36.2708 1.63225C37.3125 2.72042 37.8333 4.03348 37.8333 5.57143Z" fill="black"/>
</g>
<defs>
<clipPath id="clip0_255_14338">
<rect width="40" height="39" fill="white" transform="translate(0.5)"/>
</clipPath>
</defs>
</svg>
