<svg width="35" height="34" viewBox="0 0 35 34" fill="none" xmlns="http://www.w3.org/2000/svg">
<path d="M15.6623 4.46451C15.8202 4.14457 16.0645 3.8752 16.3676 3.68685C16.6706 3.4985 17.0203 3.39868 17.3771 3.39868C17.7339 3.39868 18.0836 3.4985 18.3867 3.68685C18.6897 3.8752 18.934 4.14457 19.092 4.46451L22.3241 11.0138L29.5513 12.0656C29.9046 12.1166 30.2366 12.2654 30.5097 12.4953C30.7828 12.7251 30.9861 13.0268 31.0967 13.3662C31.2073 13.7056 31.2206 14.0692 31.1353 14.4158C31.0499 14.7624 30.8693 15.0782 30.6138 15.3275L25.382 20.4254L26.6166 27.6228C26.6771 27.9746 26.6379 28.3363 26.5035 28.667C26.3691 28.9977 26.1448 29.2841 25.856 29.494C25.5672 29.7038 25.2255 29.8286 24.8695 29.8543C24.5134 29.88 24.1573 29.8056 23.8414 29.6394L17.3771 26.2394L10.9129 29.6394C10.597 29.8056 10.2408 29.88 9.88479 29.8543C9.52875 29.8286 9.18701 29.7038 8.89823 29.494C8.60945 29.2841 8.38517 28.9977 8.25075 28.667C8.11633 28.3363 8.07715 27.9746 8.13763 27.6228L9.37013 20.4254L4.14263 15.3254C3.88778 15.0762 3.70764 14.7607 3.62255 14.4145C3.53746 14.0684 3.5508 13.7054 3.66107 13.3664C3.77133 13.0274 3.97413 12.726 4.24658 12.4962C4.51904 12.2663 4.8503 12.1172 5.203 12.0656L12.428 11.0138L15.6623 4.46451Z" fill="#121212"/>
</svg>
