<svg width="34" height="35" viewBox="0 0 34 35" fill="none" xmlns="http://www.w3.org/2000/svg">
<path d="M14.5212 6.52079C14.803 6.52079 15.0732 6.63273 15.2725 6.83199C15.4717 7.03125 15.5837 7.3015 15.5837 7.58329V18.9166H26.917C27.1737 18.9166 27.4218 19.0096 27.6153 19.1784C27.8088 19.3471 27.9347 19.5803 27.9696 19.8346L27.9795 19.9791C27.9795 27.02 22.2703 32.0208 15.2295 32.0208C11.848 32.0208 8.60497 30.6775 6.21388 28.2864C3.82279 25.8953 2.47949 22.6523 2.47949 19.2708C2.47949 12.23 7.48033 6.52079 14.5212 6.52079ZM18.7712 2.97913C22.1527 2.97913 25.3957 4.32243 27.7868 6.71351C30.1779 9.1046 31.5212 12.3476 31.5212 15.7291C31.5212 16.0109 31.4092 16.2812 31.21 16.4804C31.0107 16.6797 30.7404 16.7916 30.4587 16.7916H18.7712C18.4894 16.7916 18.2191 16.6797 18.0199 16.4804C17.8206 16.2812 17.7087 16.0109 17.7087 15.7291V4.04163C17.7087 3.75983 17.8206 3.48958 18.0199 3.29033C18.2191 3.09107 18.4894 2.97913 18.7712 2.97913Z" fill="black"/>
</svg>
