<svg width="30" height="31" viewBox="0 0 30 31" fill="none" xmlns="http://www.w3.org/2000/svg">
<path d="M12.8125 6.1983C13.0611 6.1983 13.2996 6.29708 13.4754 6.47289C13.6512 6.64871 13.75 6.88716 13.75 7.1358V17.1358H23.75C23.9765 17.1358 24.1954 17.2179 24.3662 17.3668C24.5369 17.5157 24.6479 17.7214 24.6787 17.9458L24.6875 18.0733C24.6875 24.2858 19.65 28.6983 13.4375 28.6983C10.4538 28.6983 7.59233 27.513 5.48255 25.4033C3.37276 23.2935 2.1875 20.432 2.1875 17.4483C2.1875 11.2358 6.6 6.1983 12.8125 6.1983ZM16.5625 3.0733C19.5462 3.0733 22.4077 4.25857 24.5175 6.36835C26.6272 8.47814 27.8125 11.3396 27.8125 14.3233C27.8125 14.5719 27.7137 14.8104 27.5379 14.9862C27.3621 15.162 27.1236 15.2608 26.875 15.2608H16.5625C16.3139 15.2608 16.0754 15.162 15.8996 14.9862C15.7238 14.8104 15.625 14.5719 15.625 14.3233V4.0108C15.625 3.76216 15.7238 3.52371 15.8996 3.34789C16.0754 3.17208 16.3139 3.0733 16.5625 3.0733Z" fill="black"/>
</svg>
