<svg width="35" height="34" viewBox="0 0 35 34" fill="none" xmlns="http://www.w3.org/2000/svg">
<path d="M4.375 5.3125C4.375 5.03071 4.48694 4.76046 4.6862 4.5612C4.88546 4.36194 5.15571 4.25 5.4375 4.25C5.71929 4.25 5.98954 4.36194 6.1888 4.5612C6.38806 4.76046 6.5 5.03071 6.5 5.3125V27.625H28.8125C29.0943 27.625 29.3645 27.7369 29.5638 27.9362C29.7631 28.1355 29.875 28.4057 29.875 28.6875C29.875 28.9693 29.7631 29.2395 29.5638 29.4388C29.3645 29.6381 29.0943 29.75 28.8125 29.75H5.4375C5.15571 29.75 4.88546 29.6381 4.6862 29.4388C4.48694 29.2395 4.375 28.9693 4.375 28.6875V5.3125ZM27.75 9.5625C27.75 9.36518 27.6951 9.17176 27.5913 9.00391C27.4876 8.83606 27.3392 8.70042 27.1627 8.61217C26.9862 8.52393 26.7886 8.48657 26.5921 8.50429C26.3956 8.52201 26.2079 8.59411 26.05 8.7125L18.1167 14.6625L12.705 11.4807C12.5525 11.3909 12.3799 11.3406 12.203 11.3344C12.0261 11.3282 11.8505 11.3663 11.6921 11.4453L7.91667 13.3322V26.2083H27.75V9.5625Z" fill="#121212"/>
</svg>
