<svg width="24" height="25" viewBox="0 0 24 25" fill="none" xmlns="http://www.w3.org/2000/svg">
<path d="M12.0744 14.1901L17.0244 9.24007C17.1167 9.14456 17.227 9.06838 17.349 9.01597C17.471 8.96356 17.6022 8.93598 17.735 8.93482C17.8678 8.93367 17.9995 8.95897 18.1224 9.00925C18.2453 9.05953 18.3569 9.13378 18.4508 9.22768C18.5447 9.32157 18.619 9.43322 18.6692 9.55612C18.7195 9.67901 18.7448 9.81069 18.7437 9.94347C18.7425 10.0763 18.7149 10.2075 18.6625 10.3295C18.6101 10.4515 18.5339 10.5618 18.4384 10.6541L12.7814 16.3111C12.5939 16.4985 12.3396 16.6039 12.0744 16.6039C11.8092 16.6039 11.5549 16.4985 11.3674 16.3111L5.71041 10.6541C5.6149 10.5618 5.53872 10.4515 5.48631 10.3295C5.4339 10.2075 5.40631 10.0763 5.40516 9.94347C5.404 9.81069 5.42931 9.67901 5.47959 9.55612C5.52987 9.43322 5.60412 9.32157 5.69801 9.22768C5.79191 9.13378 5.90356 9.05953 6.02646 9.00925C6.14935 8.95897 6.28103 8.93367 6.41381 8.93482C6.54659 8.93598 6.67781 8.96356 6.79981 9.01597C6.92182 9.06838 7.03216 9.14456 7.12441 9.24007L12.0744 14.1901Z" fill="#0F172A"/>
</svg>
