<svg width="35" height="34" viewBox="0 0 35 34" fill="none" xmlns="http://www.w3.org/2000/svg">
<path fill-rule="evenodd" clip-rule="evenodd" d="M2.32501 4.6749C2.32501 3.97074 2.89585 3.3999 3.60001 3.3999H21.45C22.1542 3.3999 22.725 3.97074 22.725 4.6749C22.725 5.37907 22.1542 5.9499 21.45 5.9499H21.025V29.3249C21.025 30.0291 20.4542 30.5999 19.75 30.5999H17.2C16.4959 30.5999 15.925 30.0291 15.925 29.3249V25.0749C15.925 24.3707 15.3542 23.7999 14.65 23.7999H10.4C9.69585 23.7999 9.12501 24.3707 9.12501 25.0749V29.3249C9.12501 30.0291 8.55418 30.5999 7.85001 30.5999H3.60001C2.89585 30.5999 2.32501 30.0291 2.32501 29.3249C2.32501 28.6207 2.89585 28.0499 3.60001 28.0499H4.02501V5.9499H3.60001C2.89585 5.9499 2.32501 5.37907 2.32501 4.6749ZM7.42501 9.3499C7.42501 8.88046 7.80557 8.4999 8.27501 8.4999H9.97501C10.4445 8.4999 10.825 8.88046 10.825 9.3499V11.0499C10.825 11.5193 10.4445 11.8999 9.97501 11.8999H8.27501C7.80557 11.8999 7.42501 11.5193 7.42501 11.0499V9.3499ZM8.27501 15.2999C7.80557 15.2999 7.42501 15.6805 7.42501 16.1499V17.8499C7.42501 18.3193 7.80557 18.6999 8.27501 18.6999H9.97501C10.4445 18.6999 10.825 18.3193 10.825 17.8499V16.1499C10.825 15.6805 10.4445 15.2999 9.97501 15.2999H8.27501ZM14.225 9.3499C14.225 8.88046 14.6056 8.4999 15.075 8.4999H16.775C17.2445 8.4999 17.625 8.88046 17.625 9.3499V11.0499C17.625 11.5193 17.2445 11.8999 16.775 11.8999H15.075C14.6056 11.8999 14.225 11.5193 14.225 11.0499V9.3499ZM15.075 15.2999C14.6056 15.2999 14.225 15.6805 14.225 16.1499V17.8499C14.225 18.3193 14.6056 18.6999 15.075 18.6999H16.775C17.2445 18.6999 17.625 18.3193 17.625 17.8499V16.1499C17.625 15.6805 17.2445 15.2999 16.775 15.2999H15.075Z" fill="#121212"/>
<path fill-rule="evenodd" clip-rule="evenodd" d="M24.85 10.1999C24.1459 10.1999 23.575 10.7707 23.575 11.4749V28.8999C23.575 29.8388 24.3361 30.5999 25.275 30.5999H31.65C32.3542 30.5999 32.925 30.0291 32.925 29.3249C32.925 28.6207 32.3542 28.0499 31.65 28.0499H31.225V12.7499H31.65C32.3542 12.7499 32.925 12.1791 32.925 11.4749C32.925 10.7707 32.3542 10.1999 31.65 10.1999H24.85ZM25.7 16.1499C25.7 15.6805 26.0806 15.2999 26.55 15.2999H28.25C28.7195 15.2999 29.1 15.6805 29.1 16.1499V17.8499C29.1 18.3193 28.7195 18.6999 28.25 18.6999H26.55C26.0806 18.6999 25.7 18.3193 25.7 17.8499V16.1499ZM26.55 22.0999C26.0806 22.0999 25.7 22.4805 25.7 22.9499V24.6499C25.7 25.1193 26.0806 25.4999 26.55 25.4999H28.25C28.7195 25.4999 29.1 25.1193 29.1 24.6499V22.9499C29.1 22.4805 28.7195 22.0999 28.25 22.0999H26.55Z" fill="#121212"/>
</svg>
