<svg width="40" height="40" viewBox="0 0 40 40" fill="none" xmlns="http://www.w3.org/2000/svg">
<path d="M3.49062 18.4776C3.47064 18.2475 3.49871 18.0157 3.57306 17.797C3.6474 17.5783 3.76639 17.3774 3.92247 17.2072C4.07856 17.0369 4.26834 16.9009 4.47976 16.8079C4.69118 16.7149 4.91964 16.6668 5.15062 16.6667H8.33312C8.77515 16.6667 9.19907 16.8423 9.51163 17.1549C9.82419 17.4675 9.99979 17.8914 9.99979 18.3334V34.1667C9.99979 34.6088 9.82419 35.0327 9.51163 35.3453C9.19907 35.6578 8.77515 35.8334 8.33312 35.8334H6.52812C6.11098 35.8335 5.70896 35.6772 5.40147 35.3953C5.09398 35.1134 4.90337 34.7265 4.86729 34.3109L3.49062 18.4776ZM14.9998 17.8126C14.9998 17.1159 15.4331 16.4926 16.0623 16.1959C17.4365 15.5476 19.7773 14.2451 20.8331 12.4842C22.194 10.2142 22.4506 6.11341 22.4923 5.17424C22.4981 5.04258 22.4948 4.91091 22.5123 4.78091C22.7381 3.15341 25.879 5.05424 27.0831 7.06424C27.7373 8.15424 27.8206 9.58674 27.7523 10.7059C27.6781 11.9026 27.3273 13.0584 26.9831 14.2067L26.2498 16.6542H35.2973C35.5548 16.6542 35.8088 16.7139 36.0394 16.8285C36.27 16.9432 36.4708 17.1097 36.6263 17.315C36.7817 17.5203 36.8874 17.7588 36.9352 18.0119C36.9829 18.2649 36.9714 18.5256 36.9015 18.7734L32.4265 34.6201C32.3277 34.9696 32.1174 35.2772 31.8277 35.4963C31.538 35.7153 31.1846 35.8337 30.8215 35.8334H16.6665C16.2244 35.8334 15.8005 35.6578 15.4879 35.3453C15.1754 35.0327 14.9998 34.6088 14.9998 34.1667V17.8126Z" fill="black" stroke="black" stroke-width="4" stroke-linecap="round" stroke-linejoin="round"/>
</svg>
