<svg width="35" height="34" viewBox="0 0 35 34" fill="none" xmlns="http://www.w3.org/2000/svg">
<path d="M17.875 3.1875C18.4618 3.1875 18.9375 3.6632 18.9375 4.25V7.4375C18.9375 8.0243 18.4618 8.5 17.875 8.5C17.2882 8.5 16.8125 8.0243 16.8125 7.4375V4.25C16.8125 3.6632 17.2882 3.1875 17.875 3.1875Z" fill="#121212"/>
<path d="M11.5 17C11.5 13.4792 14.3542 10.625 17.875 10.625C21.3958 10.625 24.25 13.4792 24.25 17C24.25 20.5208 21.3958 23.375 17.875 23.375C14.3542 23.375 11.5 20.5208 11.5 17Z" fill="#121212"/>
<path d="M27.642 8.73565C28.0569 8.32071 28.0569 7.64798 27.642 7.23304C27.2271 6.81811 26.5543 6.81811 26.1394 7.23304L23.8855 9.48695C23.4705 9.90188 23.4705 10.5746 23.8855 10.9895C24.3004 11.4045 24.9732 11.4045 25.3881 10.9895L27.642 8.73565Z" fill="#121212"/>
<path d="M31.6875 17C31.6875 17.5868 31.2118 18.0625 30.625 18.0625H27.4375C26.8507 18.0625 26.375 17.5868 26.375 17C26.375 16.4132 26.8507 15.9375 27.4375 15.9375H30.625C31.2118 15.9375 31.6875 16.4132 31.6875 17Z" fill="#121212"/>
<path d="M26.1392 26.7669C26.5542 27.1818 27.2269 27.1818 27.6418 26.7669C28.0568 26.3519 28.0568 25.6792 27.6418 25.2643L25.3879 23.0104C24.973 22.5954 24.3003 22.5954 23.8853 23.0104C23.4704 23.4253 23.4704 24.098 23.8853 24.513L26.1392 26.7669Z" fill="#121212"/>
<path d="M17.875 25.5C18.4618 25.5 18.9375 25.9757 18.9375 26.5625V29.75C18.9375 30.3368 18.4618 30.8125 17.875 30.8125C17.2882 30.8125 16.8125 30.3368 16.8125 29.75V26.5625C16.8125 25.9757 17.2882 25.5 17.875 25.5Z" fill="#121212"/>
<path d="M11.8648 24.513C12.2797 24.098 12.2797 23.4253 11.8648 23.0104C11.4499 22.5954 10.7771 22.5954 10.3622 23.0104L8.10829 25.2643C7.69336 25.6792 7.69336 26.3519 8.10829 26.7669C8.52322 27.1818 9.19596 27.1818 9.61089 26.7669L11.8648 24.513Z" fill="#121212"/>
<path d="M9.375 17C9.375 17.5868 8.8993 18.0625 8.3125 18.0625H5.125C4.5382 18.0625 4.0625 17.5868 4.0625 17C4.0625 16.4132 4.5382 15.9375 5.125 15.9375H8.3125C8.8993 15.9375 9.375 16.4132 9.375 17Z" fill="#121212"/>
<path d="M10.362 10.9895C10.777 11.4045 11.4497 11.4045 11.8646 10.9895C12.2796 10.5746 12.2796 9.90187 11.8646 9.48693L9.61073 7.23303C9.1958 6.8181 8.52306 6.8181 8.10813 7.23303C7.6932 7.64796 7.6932 8.3207 8.10813 8.73563L10.362 10.9895Z" fill="#121212"/>
</svg>
