<svg width="16" height="17" viewBox="0 0 16 17" fill="none" xmlns="http://www.w3.org/2000/svg">
<path d="M8.00341 14.2094C9.4179 14.2094 10.7745 13.6475 11.7746 12.6473C12.7748 11.6471 13.3367 10.2906 13.3367 8.87608C13.3367 7.46159 12.7748 6.10504 11.7746 5.10484C10.7745 4.10465 9.4179 3.54274 8.00341 3.54274C6.58893 3.54274 5.23237 4.10465 4.23218 5.10484C3.23198 6.10504 2.67008 7.46159 2.67008 8.87608C2.67008 10.2906 3.23198 11.6471 4.23218 12.6473C5.23237 13.6475 6.58893 14.2094 8.00341 14.2094V14.2094ZM8.00341 15.5427C4.32141 15.5427 1.33675 12.5581 1.33675 8.87608C1.33675 5.19408 4.32141 2.20941 8.00341 2.20941C11.6854 2.20941 14.6701 5.19408 14.6701 8.87608C14.6701 12.5581 11.6854 15.5427 8.00341 15.5427Z" fill="#F87171"/>
</svg>
