<svg width="26" height="26" viewBox="0 0 26 26" fill="none" xmlns="http://www.w3.org/2000/svg">
<path d="M23.4035 11.7298C23.6804 12.0782 23.8337 12.5308 23.8337 13C23.8337 13.4693 23.6804 13.9219 23.4035 14.2702C21.6502 16.4126 17.6592 20.5834 13.0003 20.5834C8.34147 20.5834 4.35055 16.4126 2.59721 14.2702C2.32028 13.9219 2.16699 13.4693 2.16699 13C2.16699 12.5308 2.32028 12.0782 2.59721 11.7298C4.35055 9.58753 8.34147 5.41669 13.0003 5.41669C17.6592 5.41669 21.6502 9.58753 23.4035 11.7298Z" stroke="#98989A" stroke-width="1.5" stroke-linecap="round" stroke-linejoin="round"/>
<path d="M13.0009 16.3702C14.8453 16.3702 16.3406 14.8613 16.3406 12.9999C16.3406 11.1385 14.8453 9.62955 13.0009 9.62955C11.1564 9.62955 9.66119 11.1385 9.66119 12.9999C9.66119 14.8613 11.1564 16.3702 13.0009 16.3702Z" stroke="#98989A" stroke-width="1.5" stroke-linecap="round" stroke-linejoin="round"/>
</svg>
