<svg width="24" height="25" viewBox="0 0 24 25" fill="none" xmlns="http://www.w3.org/2000/svg">
<path d="M20.0034 20.8761V10.0081L12.0034 5.20806L4.00342 10.0081V20.8761H8.00342V18.1261C8.00342 17.0652 8.42485 16.0478 9.17499 15.2976C9.92514 14.5475 10.9426 14.1261 12.0034 14.1261C13.0643 14.1261 14.0817 14.5475 14.8318 15.2976C15.582 16.0478 16.0034 17.0652 16.0034 18.1261V20.8761H20.0034ZM14.0034 22.8761V18.1261C14.0034 17.5956 13.7927 17.0869 13.4176 16.7118C13.0426 16.3368 12.5339 16.1261 12.0034 16.1261C11.473 16.1261 10.9643 16.3368 10.5892 16.7118C10.2141 17.0869 10.0034 17.5956 10.0034 18.1261V22.8761H4.00342C3.47298 22.8761 2.96428 22.6653 2.5892 22.2903C2.21413 21.9152 2.00342 21.4065 2.00342 20.8761V10.0081C2.00341 9.66269 2.09285 9.3232 2.26301 9.02265C2.43317 8.72211 2.67826 8.47075 2.97442 8.29306L10.9744 3.49306C11.2853 3.30656 11.6409 3.20804 12.0034 3.20804C12.3659 3.20804 12.7216 3.30656 13.0324 3.49306L21.0324 8.29306C21.3286 8.47075 21.5737 8.72211 21.7438 9.02265C21.914 9.3232 22.0034 9.66269 22.0034 10.0081V20.8761C22.0034 21.4065 21.7927 21.9152 21.4176 22.2903C21.0426 22.6653 20.5339 22.8761 20.0034 22.8761H14.0034Z" fill="#0F172A"/>
</svg>
