<svg width="26" height="26" viewBox="0 0 26 26" fill="none" xmlns="http://www.w3.org/2000/svg">
<path d="M12.6154 22.6532L12.6083 22.6494L12.5838 22.6361C12.5629 22.6248 12.533 22.6084 12.4947 22.587C12.4182 22.5443 12.308 22.4818 12.169 22.4C11.8912 22.2366 11.4976 21.9959 11.0268 21.6829C10.0866 21.0579 8.83048 20.1393 7.57098 18.9652C5.07846 16.6417 2.4375 13.1897 2.4375 8.9375C2.4375 5.76544 5.1064 3.25 8.32812 3.25C10.2227 3.25 11.9192 4.11568 13 5.47256C14.0808 4.11568 15.7773 3.25 17.6719 3.25C20.8936 3.25 23.5625 5.76544 23.5625 8.9375C23.5625 13.1897 20.9215 16.6417 18.429 18.9652C17.1695 20.1393 15.9134 21.0579 14.9732 21.6829C14.5024 21.9959 14.1088 22.2366 13.831 22.4C13.692 22.4818 13.5818 22.5443 13.5053 22.587C13.467 22.6084 13.4371 22.6248 13.4162 22.6361L13.3917 22.6494L13.3846 22.6532L13.3816 22.6548C13.1433 22.7813 12.8567 22.7813 12.6184 22.6548L12.6154 22.6532Z" fill="#FF5500"/>
</svg>
