<svg width="34" height="35" viewBox="0 0 34 35" fill="none" xmlns="http://www.w3.org/2000/svg">
<path d="M20.0737 19.9225L22.0571 16.4942C22.1846 16.2817 22.1279 16.0125 21.9437 15.8567L19.8471 14.2134C19.8896 13.9017 19.9179 13.5759 19.9179 13.25C19.9179 12.9242 19.8896 12.5984 19.8471 12.2725L21.9437 10.6292C22.1279 10.4734 22.1846 10.2042 22.0571 9.99171L20.0737 6.56337C19.9462 6.35087 19.6912 6.26587 19.4646 6.35087L16.9996 7.34254C16.4896 6.94587 15.9371 6.62004 15.3279 6.36504L14.9596 3.74421C14.9358 3.62963 14.8738 3.52654 14.7836 3.45189C14.6935 3.37723 14.5807 3.33543 14.4637 3.33337H10.4971C10.2562 3.33337 10.0437 3.51754 10.0012 3.75837L9.63289 6.37921C9.03789 6.63421 8.47122 6.96004 7.96122 7.35671L5.49622 6.36504C5.26956 6.28004 5.01456 6.36504 4.88706 6.57754L2.90372 10.0059C2.77622 10.2184 2.83289 10.4875 3.01706 10.6434L5.11372 12.2867C5.07122 12.5984 5.04289 12.9242 5.04289 13.25C5.04289 13.5759 5.07122 13.9017 5.11372 14.2275L3.01706 15.8709C2.83289 16.0267 2.77622 16.2959 2.90372 16.5084L4.88706 19.9367C5.01456 20.1492 5.26956 20.2342 5.49622 20.1492L7.96122 19.1575C8.47122 19.5542 9.02372 19.88 9.63289 20.135L10.0012 22.7559C10.0437 22.9825 10.2562 23.1667 10.4971 23.1667H14.4637C14.7046 23.1667 14.9171 22.9825 14.9596 22.7417L15.3279 20.1209C15.9229 19.8659 16.4896 19.54 16.9996 19.1434L19.4646 20.135C19.6912 20.22 19.9462 20.135 20.0737 19.9225ZM12.4804 16.0834C10.9221 16.0834 9.64706 14.8084 9.64706 13.25C9.64706 11.6917 10.9221 10.4167 12.4804 10.4167C14.0387 10.4167 15.3137 11.6917 15.3137 13.25C15.3137 14.8084 14.0387 16.0834 12.4804 16.0834ZM31.0529 26.9492L29.6929 25.9009C29.7212 25.7025 29.7496 25.49 29.7496 25.2775C29.7496 25.065 29.7354 24.8525 29.6929 24.6542L31.0387 23.6059C31.1521 23.5067 31.1946 23.3367 31.1096 23.195L29.8346 20.9992C29.7637 20.8575 29.5937 20.815 29.4379 20.8575L27.8654 21.495C27.5396 21.24 27.1854 21.0275 26.7887 20.8717L26.5479 19.2C26.5423 19.1243 26.5087 19.0534 26.4538 19.001C26.3988 18.9487 26.3263 18.9186 26.2504 18.9167H23.7146C23.5587 18.9167 23.4171 19.03 23.4029 19.1859L23.1621 20.8575C22.7796 21.0275 22.4112 21.2259 22.0854 21.4809L20.5129 20.8434C20.4407 20.8162 20.3612 20.8156 20.2886 20.8415C20.216 20.8674 20.1549 20.9183 20.1162 20.985L18.8412 23.1809C18.7704 23.3225 18.7846 23.4925 18.9121 23.5917L20.2579 24.64C20.1995 25.0535 20.1995 25.4732 20.2579 25.8867L18.9121 26.935C18.7987 27.0342 18.7562 27.2042 18.8412 27.3459L20.1162 29.5417C20.1871 29.6834 20.3571 29.7259 20.5129 29.6834L22.0854 29.0459C22.4112 29.3009 22.7654 29.5134 23.1621 29.6692L23.4029 31.3409C23.4312 31.4967 23.5587 31.61 23.7146 31.61H26.2504C26.4062 31.61 26.5479 31.4967 26.5621 31.3409L26.8029 29.6692C27.1854 29.4992 27.5537 29.3009 27.8654 29.0459L29.4521 29.6834C29.5937 29.74 29.7637 29.6834 29.8487 29.5417L31.1237 27.3459C31.2087 27.2184 31.1662 27.0484 31.0529 26.9492ZM24.9754 27.1759C24.7241 27.1758 24.4754 27.1262 24.2433 27.03C24.0112 26.9337 23.8003 26.7927 23.6228 26.615C23.4452 26.4373 23.3043 26.2263 23.2083 25.9942C23.1122 25.762 23.0628 25.5132 23.0629 25.262C23.063 25.0107 23.1126 24.7619 23.2088 24.5299C23.305 24.2978 23.446 24.0869 23.6238 23.9093C23.8015 23.7317 24.0124 23.5909 24.2446 23.4948C24.4768 23.3988 24.7256 23.3494 24.9768 23.3495C25.4842 23.3496 25.9708 23.5514 26.3294 23.9103C26.6881 24.2693 26.8895 24.756 26.8893 25.2634C26.8891 25.7708 26.6874 26.2573 26.3284 26.616C25.9695 26.9747 25.4828 27.1761 24.9754 27.1759Z" fill="#121212"/>
</svg>
