<svg width="30" height="31" viewBox="0 0 30 31" fill="none" xmlns="http://www.w3.org/2000/svg">
<path d="M17.7126 17.8299L19.4626 14.8049C19.5751 14.6174 19.5251 14.3799 19.3626 14.2424L17.5126 12.7924C17.5501 12.5174 17.5751 12.2299 17.5751 11.9424C17.5751 11.6549 17.5501 11.3674 17.5126 11.0799L19.3626 9.62994C19.5251 9.49244 19.5751 9.25494 19.4626 9.06744L17.7126 6.04244C17.6001 5.85494 17.3751 5.77994 17.1751 5.85494L15.0001 6.72994C14.5501 6.37994 14.0626 6.09244 13.5251 5.86744L13.2001 3.55494C13.1792 3.45385 13.1244 3.36289 13.0449 3.29701C12.9654 3.23114 12.8659 3.19426 12.7626 3.19244H9.26263C9.05013 3.19244 8.86263 3.35494 8.82513 3.56744L8.50013 5.87994C7.97513 6.10494 7.47513 6.39244 7.02513 6.74244L4.85013 5.86744C4.65013 5.79244 4.42513 5.86744 4.31263 6.05494L2.56263 9.07994C2.45013 9.26744 2.50013 9.50494 2.66263 9.64244L4.51263 11.0924C4.47513 11.3674 4.45013 11.6549 4.45013 11.9424C4.45013 12.2299 4.47513 12.5174 4.51263 12.8049L2.66263 14.2549C2.50013 14.3924 2.45013 14.6299 2.56263 14.8174L4.31263 17.8424C4.42513 18.0299 4.65013 18.1049 4.85013 18.0299L7.02513 17.1549C7.47513 17.5049 7.96263 17.7924 8.50013 18.0174L8.82513 20.3299C8.86263 20.5299 9.05013 20.6924 9.26263 20.6924H12.7626C12.9751 20.6924 13.1626 20.5299 13.2001 20.3174L13.5251 18.0049C14.0501 17.7799 14.5501 17.4924 15.0001 17.1424L17.1751 18.0174C17.3751 18.0924 17.6001 18.0174 17.7126 17.8299ZM11.0126 14.4424C9.63763 14.4424 8.51263 13.3174 8.51263 11.9424C8.51263 10.5674 9.63763 9.44244 11.0126 9.44244C12.3876 9.44244 13.5126 10.5674 13.5126 11.9424C13.5126 13.3174 12.3876 14.4424 11.0126 14.4424ZM27.4001 24.0299L26.2001 23.1049C26.2251 22.9299 26.2501 22.7424 26.2501 22.5549C26.2501 22.3674 26.2376 22.1799 26.2001 22.0049L27.3876 21.0799C27.4876 20.9924 27.5251 20.8424 27.4501 20.7174L26.3251 18.7799C26.2626 18.6549 26.1126 18.6174 25.9751 18.6549L24.5876 19.2174C24.3001 18.9924 23.9876 18.8049 23.6376 18.6674L23.4251 17.1924C23.4202 17.1256 23.3906 17.063 23.3421 17.0168C23.2936 16.9706 23.2296 16.9441 23.1626 16.9424H20.9251C20.7876 16.9424 20.6626 17.0424 20.6501 17.1799L20.4376 18.6549C20.1001 18.8049 19.7751 18.9799 19.4876 19.2049L18.1001 18.6424C18.0364 18.6185 17.9663 18.6179 17.9022 18.6408C17.8381 18.6637 17.7842 18.7086 17.7501 18.7674L16.6251 20.7049C16.5626 20.8299 16.5751 20.9799 16.6876 21.0674L17.8751 21.9924C17.8236 22.3573 17.8236 22.7276 17.8751 23.0924L16.6876 24.0174C16.5876 24.1049 16.5501 24.2549 16.6251 24.3799L17.7501 26.3174C17.8126 26.4424 17.9626 26.4799 18.1001 26.4424L19.4876 25.8799C19.7751 26.1049 20.0876 26.2924 20.4376 26.4299L20.6501 27.9049C20.6751 28.0424 20.7876 28.1424 20.9251 28.1424H23.1626C23.3001 28.1424 23.4251 28.0424 23.4376 27.9049L23.6501 26.4299C23.9876 26.2799 24.3126 26.1049 24.5876 25.8799L25.9876 26.4424C26.1126 26.4924 26.2626 26.4424 26.3376 26.3174L27.4626 24.3799C27.5376 24.2674 27.5001 24.1174 27.4001 24.0299ZM22.0376 24.2299C21.8159 24.2299 21.5964 24.1861 21.3917 24.1012C21.1869 24.0163 21.0008 23.8919 20.8441 23.7351C20.6874 23.5782 20.5631 23.3921 20.4784 23.1873C20.3936 22.9824 20.35 22.7629 20.3501 22.5412C20.3502 22.3195 20.394 22.1 20.4789 21.8952C20.5638 21.6904 20.6882 21.5044 20.845 21.3477C21.0018 21.191 21.188 21.0667 21.3928 20.982C21.5977 20.8972 21.8172 20.8536 22.0389 20.8537C22.4866 20.8539 22.9159 21.0319 23.2324 21.3486C23.5488 21.6653 23.7265 22.0947 23.7264 22.5424C23.7262 22.9902 23.5482 23.4195 23.2315 23.7359C22.9148 24.0524 22.4853 24.2301 22.0376 24.2299Z" fill="#121212"/>
</svg>
