<svg width="41" height="40" viewBox="0 0 41 40" fill="none" xmlns="http://www.w3.org/2000/svg">
<path d="M20.6663 35C20.1941 35 19.7986 34.84 19.4797 34.52C19.1608 34.2 19.0008 33.8045 18.9997 33.3333C18.9997 33.1389 19.0413 32.9372 19.1247 32.7283C19.208 32.5194 19.333 32.3322 19.4997 32.1667L27.208 24.4583L25.9997 23.25L18.333 30.9583C18.1663 31.125 17.9858 31.25 17.7913 31.3333C17.5969 31.4167 17.3886 31.4583 17.1663 31.4583C16.6941 31.4583 16.2986 31.2989 15.9797 30.98C15.6608 30.6611 15.5008 30.265 15.4997 29.7917C15.4997 29.5139 15.5413 29.2845 15.6247 29.1033C15.708 28.9222 15.8191 28.7628 15.958 28.625L23.6663 20.9167L22.4997 19.75L14.7913 27.4167C14.6247 27.5833 14.4441 27.7083 14.2497 27.7917C14.0552 27.875 13.833 27.9167 13.583 27.9167C13.1386 27.9167 12.7497 27.75 12.4163 27.4167C12.083 27.0833 11.9163 26.6945 11.9163 26.25C11.9163 26.0278 11.958 25.8195 12.0413 25.625C12.1247 25.4306 12.2497 25.25 12.4163 25.0833L20.1247 17.375L18.9163 16.2083L11.2497 23.9167C11.1108 24.0556 10.9441 24.1667 10.7497 24.25C10.5552 24.3333 10.3191 24.375 10.0413 24.375C9.56912 24.375 9.17301 24.215 8.85301 23.895C8.53301 23.575 8.37356 23.1795 8.37467 22.7083C8.37467 22.4861 8.41634 22.2778 8.49967 22.0833C8.58301 21.8889 8.70801 21.7083 8.87467 21.5417L18.1663 12.25L24.4163 18.5417C24.7219 18.8472 25.083 19.0906 25.4997 19.2717C25.9163 19.4528 26.333 19.5428 26.7497 19.5417C27.6386 19.5417 28.4163 19.2295 29.083 18.605C29.7497 17.9806 30.083 17.1817 30.083 16.2083C30.083 15.8195 30.0136 15.4167 29.8747 15C29.7358 14.5833 29.4858 14.1945 29.1247 13.8333L21.6663 6.37501C22.1386 5.93056 22.6663 5.59056 23.2497 5.35501C23.833 5.11945 24.4163 5.00112 24.9997 5.00001C25.7219 5.00001 26.3886 5.11834 26.9997 5.35501C27.6108 5.59167 28.1663 5.95945 28.6663 6.45834L35.708 13.5417C36.208 14.0417 36.5763 14.5972 36.813 15.2083C37.0497 15.8195 37.1674 16.5278 37.1663 17.3333C37.1663 17.8889 37.0413 18.4517 36.7913 19.0217C36.5413 19.5917 36.1802 20.1122 35.708 20.5833L21.833 34.5C21.6108 34.7222 21.4163 34.8611 21.2497 34.9167C21.083 34.9722 20.8886 35 20.6663 35ZM6.37467 21.6667L5.29134 20.5833C4.81912 20.1389 4.45801 19.6111 4.20801 19C3.95801 18.3889 3.83301 17.75 3.83301 17.0833C3.83301 16.3611 3.9719 15.6945 4.24967 15.0833C4.52745 14.4722 4.87467 13.9583 5.29134 13.5417L12.333 6.45834C12.7775 6.0139 13.3052 5.65945 13.9163 5.39501C14.5275 5.13056 15.1247 4.9989 15.708 5.00001C16.458 5.00001 17.1247 5.10445 17.708 5.31334C18.2913 5.52223 18.8608 5.9039 19.4163 6.45834L27.958 15C28.1247 15.1667 28.2497 15.3472 28.333 15.5417C28.4163 15.7361 28.458 15.9445 28.458 16.1667C28.458 16.6111 28.2913 17 27.958 17.3333C27.6247 17.6667 27.2358 17.8333 26.7913 17.8333C26.5413 17.8333 26.333 17.7989 26.1663 17.73C25.9997 17.6611 25.8191 17.5289 25.6247 17.3333L18.1247 9.91667L6.37467 21.6667Z" fill="black"/>
</svg>
