<svg width="34" height="35" viewBox="0 0 34 35" fill="none" xmlns="http://www.w3.org/2000/svg">
<g clip-path="url(#clip0_255_14369)">
<path d="M28.3334 15.375C28.8616 15.3751 29.3709 15.5718 29.762 15.927C30.153 16.2822 30.3978 16.7702 30.4485 17.296L30.4584 17.5V23.1667C30.4584 24.8055 29.8273 26.3813 28.6961 27.567C27.565 28.7528 26.0207 29.4574 24.3837 29.5346L24.0834 29.5417H5.66671C5.26429 29.542 4.87004 29.4281 4.52985 29.2131C4.18965 28.9981 3.9175 28.6909 3.74504 28.3273C3.57259 27.9637 3.50693 27.5586 3.5557 27.1592C3.60448 26.7597 3.76568 26.3823 4.02055 26.0709L4.16363 25.915L8.41363 21.665C8.79841 21.2781 9.31729 21.0541 9.86277 21.0393C10.4082 21.0245 10.9385 21.2201 11.3437 21.5856C11.7489 21.9511 11.998 22.4584 12.0393 23.0025C12.0806 23.5466 11.911 24.0858 11.5657 24.5083L11.4198 24.6698L10.7965 25.2917H24.0834C24.6116 25.2917 25.1209 25.0949 25.512 24.7397C25.903 24.3846 26.1478 23.8965 26.1985 23.3707L26.2084 23.1667V17.5C26.2084 16.9365 26.4323 16.396 26.8308 15.9974C27.2293 15.5989 27.7698 15.375 28.3334 15.375ZM28.3334 5.45837C28.7358 5.45806 29.1301 5.57202 29.4702 5.787C29.8104 6.00198 30.0826 6.30914 30.255 6.67275C30.4275 7.03635 30.4932 7.44145 30.4444 7.84091C30.3956 8.24038 30.2344 8.61778 29.9795 8.92921L29.8365 9.08504L25.5865 13.335C25.2017 13.722 24.6828 13.946 24.1373 13.9608C23.5918 13.9756 23.0616 13.78 22.6564 13.4145C22.2512 13.049 22.0021 12.5417 21.9608 11.9976C21.9195 11.4535 22.089 10.9143 22.4344 10.4918L22.5803 10.3303L23.2036 9.70837H9.91671C9.38846 9.7084 8.87916 9.90518 8.48812 10.2603C8.09708 10.6155 7.85234 11.1036 7.80163 11.6294L7.79171 11.8334V17.5C7.79144 18.0458 7.58123 18.5705 7.20463 18.9654C6.82804 19.3604 6.31393 19.5953 5.76884 19.6215C5.22374 19.6478 4.68945 19.4633 4.27668 19.1063C3.86391 18.7493 3.60429 18.2472 3.55163 17.704L3.54171 17.5V11.8334C3.54172 10.1946 4.17279 8.6188 5.30395 7.43304C6.4351 6.24728 7.97944 5.54266 9.61638 5.46546L9.91671 5.45837H28.3334Z" fill="#121212"/>
</g>
<defs>
<clipPath id="clip0_255_14369">
<rect width="34" height="34" fill="white" transform="translate(0 0.5)"/>
</clipPath>
</defs>
</svg>
