<svg width="30" height="31" viewBox="0 0 30 31" fill="none" xmlns="http://www.w3.org/2000/svg">
<g clip-path="url(#clip0_255_15315)">
<path d="M24.9995 13.8174C25.4656 13.8175 25.915 13.9911 26.26 14.3045C26.6051 14.6178 26.821 15.0485 26.8658 15.5124L26.8745 15.6924V20.6924C26.8745 22.1384 26.3177 23.5288 25.3196 24.5751C24.3215 25.6214 22.9589 26.2431 21.5145 26.3112L21.2495 26.3174H4.99953C4.64444 26.3177 4.29658 26.2172 3.99641 26.0275C3.69624 25.8378 3.4561 25.5668 3.30393 25.2459C3.15177 24.9251 3.09383 24.5677 3.13687 24.2152C3.1799 23.8627 3.32214 23.5297 3.54703 23.2549L3.67327 23.1174L7.42327 19.3674C7.76279 19.026 8.22062 18.8283 8.70193 18.8153C9.18323 18.8022 9.65111 18.9748 10.0086 19.2973C10.3662 19.6198 10.5859 20.0675 10.6224 20.5476C10.6588 21.0277 10.5092 21.5034 10.2045 21.8762L10.0758 22.0187L9.52577 22.5674H21.2495C21.7156 22.5674 22.165 22.3938 22.51 22.0804C22.8551 21.767 23.071 21.3364 23.1158 20.8724L23.1245 20.6924V15.6924C23.1245 15.1952 23.3221 14.7182 23.6737 14.3666C24.0253 14.015 24.5022 13.8174 24.9995 13.8174ZM24.9995 5.06744C25.3546 5.06716 25.7025 5.16772 26.0026 5.35741C26.3028 5.5471 26.543 5.81812 26.6951 6.13895C26.8473 6.45978 26.9052 6.81722 26.8622 7.16969C26.8191 7.52215 26.6769 7.85515 26.452 8.12994L26.3258 8.26744L22.5758 12.0174C22.2363 12.3588 21.7784 12.5566 21.2971 12.5696C20.8158 12.5827 20.3479 12.4101 19.9904 12.0876C19.6329 11.7651 19.4131 11.3174 19.3767 10.8373C19.3402 10.3572 19.4898 9.88149 19.7945 9.50869L19.9233 9.36619L20.4733 8.81744H8.74953C8.28342 8.81747 7.83404 8.99109 7.489 9.30447C7.14397 9.61784 6.92802 10.0485 6.88328 10.5124L6.87453 10.6924V15.6924C6.87429 16.174 6.6888 16.6369 6.35651 16.9854C6.02422 17.3339 5.5706 17.5412 5.08963 17.5643C4.60867 17.5875 4.13724 17.4247 3.77302 17.1097C3.40881 16.7947 3.17974 16.3517 3.13328 15.8724L3.12453 15.6924V10.6924C3.12453 9.24648 3.68136 7.85605 4.67944 6.80979C5.67751 5.76354 7.04017 5.14182 8.48453 5.07369L8.74953 5.06744H24.9995Z" fill="#121212"/>
</g>
<defs>
<clipPath id="clip0_255_15315">
<rect width="30" height="30" fill="white" transform="translate(0 0.692444)"/>
</clipPath>
</defs>
</svg>
