<svg width="30" height="31" viewBox="0 0 30 31" fill="none" xmlns="http://www.w3.org/2000/svg">
<path d="M16.2506 10.8858V20.8858C16.2506 21.8804 15.8555 22.8342 15.1523 23.5375C14.449 24.2407 13.4952 24.6358 12.5006 24.6358H9.78811C9.49323 25.4702 8.91286 26.1734 8.1496 26.6213C7.38634 27.0691 6.48933 27.2327 5.61712 27.0831C4.74492 26.9335 3.95368 26.4803 3.38327 25.8038C2.81286 25.1272 2.5 24.2707 2.5 23.3858C2.5 22.5009 2.81286 21.6444 3.38327 20.9678C3.95368 20.2913 4.74492 19.8381 5.61712 19.6885C6.48933 19.5389 7.38634 19.7025 8.1496 20.1504C8.91286 20.5982 9.49323 21.3014 9.78811 22.1358H12.5006C12.8321 22.1358 13.1501 22.0041 13.3845 21.7697C13.6189 21.5353 13.7506 21.2173 13.7506 20.8858V10.8858C13.7506 9.89124 14.1457 8.93741 14.849 8.23415C15.5522 7.53089 16.506 7.1358 17.5006 7.1358H21.2506V3.3858L27.5006 8.3858L21.2506 13.3858V9.6358H17.5006C17.1691 9.6358 16.8511 9.7675 16.6167 10.0019C16.3823 10.2363 16.2506 10.5543 16.2506 10.8858Z" fill="black"/>
</svg>
