<svg width="34" height="35" viewBox="0 0 34 35" fill="none" xmlns="http://www.w3.org/2000/svg">
<path d="M18.417 11.8334V23.1667C18.417 24.2939 17.9693 25.3749 17.1722 26.1719C16.3752 26.9689 15.2942 27.4167 14.167 27.4167H11.0929C10.7587 28.3623 10.1009 29.1593 9.23589 29.6669C8.37086 30.1744 7.35425 30.3598 6.36575 30.1903C5.37725 30.0207 4.48051 29.5072 3.83404 28.7404C3.18758 27.9736 2.83301 27.003 2.83301 26C2.83301 24.9971 3.18758 24.0265 3.83404 23.2597C4.48051 22.4929 5.37725 21.9793 6.36575 21.8098C7.35425 21.6403 8.37086 21.8257 9.23589 22.3332C10.1009 22.8407 10.7587 23.6378 11.0929 24.5834H14.167C14.5428 24.5834 14.9031 24.4341 15.1688 24.1684C15.4344 23.9028 15.5837 23.5424 15.5837 23.1667V11.8334C15.5837 10.7062 16.0315 9.6252 16.8285 8.82817C17.6255 8.03114 18.7065 7.58337 19.8337 7.58337H24.0837V3.33337L31.167 9.00004L24.0837 14.6667V10.4167H19.8337C19.458 10.4167 19.0976 10.566 18.832 10.8316C18.5663 11.0973 18.417 11.4577 18.417 11.8334Z" fill="black"/>
</svg>
