<svg width="34" height="34" viewBox="0 0 34 34" fill="none" xmlns="http://www.w3.org/2000/svg">
<g clip-path="url(#clip0_255_14531)">
<path fill-rule="evenodd" clip-rule="evenodd" d="M24.0113 0C24.8491 0 25.5291 0.68 25.5291 1.51786V3.50929C25.5291 3.91185 25.3692 4.29792 25.0846 4.58257C24.7999 4.86723 24.4138 5.02714 24.0113 5.02714C23.6087 5.02714 23.2226 4.86723 22.938 4.58257C22.6533 4.29792 22.4934 3.91185 22.4934 3.50929V1.51786C22.4934 0.68 23.1734 0 24.0113 0ZM9.82843 21.2209C10.613 21.2368 11.3929 21.096 12.1224 20.8068C12.8519 20.5175 13.5163 20.0856 14.0768 19.5364C14.6373 18.9872 15.0826 18.3316 15.3866 17.6081C15.6905 16.8847 15.8471 16.1078 15.8471 15.3231C15.8471 14.5383 15.6905 13.7615 15.3866 13.038C15.0826 12.3145 14.6373 11.659 14.0768 11.1097C13.5163 10.5605 12.8519 10.1286 12.1224 9.83939C11.3929 9.55015 10.613 9.40936 9.82843 9.42529C8.28496 9.45661 6.81528 10.0917 5.73479 11.1944C4.6543 12.297 4.04911 13.7793 4.04911 15.3231C4.04911 16.8669 4.6543 18.3491 5.73479 19.4518C6.81528 20.5544 8.28496 21.1895 9.82843 21.2209ZM0 33.0164C0.0405581 30.4362 1.09402 27.9754 2.93302 26.1651C4.77202 24.3547 7.2491 23.3401 9.82964 23.3401C12.4102 23.3401 14.8873 24.3547 16.7263 26.1651C18.5653 27.9754 19.6187 30.4362 19.6593 33.0164C19.6593 33.2773 19.5557 33.5275 19.3712 33.7119C19.1867 33.8964 18.9366 34 18.6757 34H0.983571C0.722712 34 0.472537 33.8964 0.288081 33.7119C0.103626 33.5275 0 33.2773 0 33.0164ZM33.3103 6.05443C33.4771 5.94148 33.6198 5.79645 33.7301 5.62778C33.8403 5.45911 33.9158 5.27018 33.9523 5.07202C33.9887 4.87386 33.9853 4.67042 33.9423 4.47357C33.8993 4.27672 33.8176 4.09041 33.7018 3.92548C33.5861 3.76056 33.4387 3.62034 33.2681 3.51299C33.0976 3.40563 32.9075 3.3333 32.7087 3.30022C32.51 3.26713 32.3066 3.27394 32.1105 3.32026C31.9144 3.36658 31.7295 3.45148 31.5666 3.57L29.937 4.71386C29.615 4.94805 29.398 5.29935 29.3326 5.69206C29.2672 6.08477 29.3588 6.48744 29.5875 6.8133C29.8162 7.13917 30.1638 7.36213 30.5553 7.43414C30.9469 7.50615 31.351 7.42145 31.6807 7.19829L33.3103 6.05443ZM14.3359 3.94157C14.1049 4.27081 14.0141 4.67823 14.0833 5.07437C14.1525 5.47051 14.3761 5.82299 14.705 6.05443L16.337 7.19829C16.4999 7.31681 16.6848 7.40171 16.8809 7.44803C17.077 7.49435 17.2804 7.50116 17.4791 7.46807C17.6779 7.43498 17.8681 7.36265 18.0386 7.2553C18.2091 7.14795 18.3565 7.00772 18.4723 6.8428C18.588 6.67788 18.6698 6.49156 18.7128 6.29472C18.7558 6.09787 18.7591 5.89443 18.7227 5.69627C18.6862 5.4981 18.6107 5.30918 18.5005 5.14051C18.3903 4.97184 18.2476 4.8268 18.0807 4.71386L16.4487 3.57C16.1195 3.33909 15.7121 3.24827 15.3159 3.31748C14.9198 3.38669 14.5673 3.61027 14.3359 3.93914V3.94157ZM23.8971 6.89714C24.6161 6.88945 25.3295 7.02386 25.9964 7.29265C26.6633 7.56145 27.2705 7.95932 27.7832 8.46344C28.2959 8.96756 28.704 9.56799 28.984 10.2303C29.264 10.8925 29.4104 11.6036 29.4149 12.3226C29.3906 14.314 28.2006 16.2083 26.418 17.0971V19.8001C26.4142 19.9573 26.3491 20.1068 26.2365 20.2166C26.124 20.3265 25.973 20.3879 25.8157 20.3879H22.202C22.0448 20.3879 21.8937 20.3265 21.7812 20.2166C21.6686 20.1068 21.6035 19.9573 21.5997 19.8001V17.1433C20.7425 16.7064 20.0152 16.052 19.4905 15.2456C18.9658 14.4392 18.6622 13.5091 18.6101 12.5484C18.5845 11.8298 18.7011 11.1132 18.9533 10.4397C19.2054 9.7663 19.5881 9.14931 20.0793 8.62419C20.5706 8.09907 21.1608 7.67618 21.816 7.3798C22.4711 7.08343 23.1784 6.9194 23.8971 6.89714Z" fill="black"/>
</g>
<defs>
<clipPath id="clip0_255_14531">
<rect width="34" height="34" fill="white"/>
</clipPath>
</defs>
</svg>
