<svg width="35" height="34" viewBox="0 0 35 34" fill="none" xmlns="http://www.w3.org/2000/svg">
<g clip-path="url(#clip0_255_14539)">
<path d="M31.267 27.1999H34.667V28.8999C34.667 29.3508 34.4879 29.7832 34.1691 30.102C33.8503 30.4208 33.4179 30.5999 32.967 30.5999H2.36699C1.91612 30.5999 1.48372 30.4208 1.16491 30.102C0.846099 29.7832 0.666992 29.3508 0.666992 28.8999V27.1999H4.06699V6.7999C4.06699 4.9299 5.59699 3.3999 7.46699 3.3999H27.867C28.7687 3.3999 29.6335 3.75812 30.2712 4.39574C30.9088 5.03336 31.267 5.89817 31.267 6.7999V27.1999ZM7.46699 6.7999V22.0999H27.867V6.7999H7.46699ZM14.267 25.4999V27.1999H21.067V25.4999H14.267Z" fill="black"/>
</g>
<defs>
<clipPath id="clip0_255_14539">
<rect width="34" height="34" fill="white" transform="translate(0.666992)"/>
</clipPath>
</defs>
</svg>
